<?xml version="1.0" encoding="utf-8"?> <!-- Generator: IcoMoon.io --> <!DOCTYPE svg PUBLIC "-//W3C//DTD SVG 1.1//EN" "http://www.w3.org/Graphics/SVG/1.1/DTD/svg11.dtd"> <svg width="800" height="32" viewBox="0 0 800 32" fill="#000000" xmlns="http://www.w3.org/2000/svg" xmlns:xlink="http://www.w3.org/1999/xlink"><path d="M 29.00,4.00L 3.00,4.00 C 1.343,4.00,0.00,5.343,0.00,7.00l0.00,18.00 c0.00,1.656, 1.343,3.00, 3.00,3.00l 26.00,0.00 c 1.657,0.00, 3.00-1.344, 3.00-3.00L 32.00,7.00 C 32.00,5.343, 30.657,4.00, 29.00,4.00z M 2.741,25.99 L 2.01,25.258l 8.249-8.248l 0.731,0.732L 2.741,25.99z M 29.259,25.99l-8.249-8.248l 0.731-0.732l 8.249,8.248L 29.259,25.99z M 17.00,19.325 L 17.00,20.00 l-2.00,0.00 l0.00-0.675 L 2.003,7.275l 1.272-1.272L 16.00,17.801L 28.725,6.003l 1.272,1.272L 17.00,19.325zM 80.00,0.00C 71.163,0.00, 64.00,7.164, 64.00,16.00c0.00,8.836, 7.163,16.00, 16.00,16.00s 16.00-7.164, 16.00-16.00 C 96.00,7.164, 88.837,0.00, 80.00,0.00z M 80.00,6.00c 1.104,0.00, 2.00,0.896, 2.00,2.00s-0.896,2.00-2.00,2.00s-2.00-0.896-2.00-2.00S 78.896,6.00, 80.00,6.00z M 75.00,24.00l 3.00-2.00l 2.00,0.00 l0.00-8.00 l-2.00,0.00 l-1.00-2.00l 5.00,0.00 l0.00,2.00 l0.00,8.00 l 2.00,0.00 l 3.00,2.00 L 75.00,24.00 zM 155.00,0.00 C 157.761,0.00 160.00,2.239 160.00,5.00 C 160.00,6.126 159.628,7.164 159.00,8.00 L 157.00,10.00 L 150.00,3.00 L 152.00,1.00 C 152.836,0.372 153.874,0.00 155.00,0.00 ZM 130.00,23.00L 128.00,32.00l 9.00-2.00l 18.50-18.50L 148.50,4.50L 130.00,23.00z M 150.362,11.362l-14.00,14.00l-1.724-1.724l 14.00-14.00L 150.362,11.362zM 210.007,9.04L 217.592,6.495L 223.954,25.457L 216.369,28.002zM 192.00,28.00l 8.00,0.00 L 200.00,6.00 L 192.00,6.00 L 192.00,28.00 z M 194.00,10.00l 4.00,0.00 l0.00,2.00 L 194.00,12.00 L 194.00,10.00 zM 202.00,28.00l 8.00,0.00 L 210.00,6.00 L 202.00,6.00 L 202.00,28.00 z M 204.00,10.00l 4.00,0.00 l0.00,2.00 l-4.00,0.00 L 204.00,10.00 zM 285.00,4.00L 259.00,4.00 C 257.35,4.00, 256.00,5.35, 256.00,7.00l0.00,20.00 c0.00,1.65, 1.35,3.00, 3.00,3.00l 26.00,0.00 c 1.65,0.00, 3.00-1.35, 3.00-3.00L 288.00,7.00 C 288.00,5.35, 286.65,4.00, 285.00,4.00z M 268.461,17.199L 260.00,23.79L 260.00,8.113 L 268.461,17.199z M 261.512,8.00L 282.488,8.00 L 272.00,15.875L 261.512,8.00z M 268.79,17.553L 272.00,21.00l 3.21-3.447 L 281.79,26.00L 262.21,26.00 L 268.79,17.553z M 275.539,17.199L 284.00,8.113l0.00,15.676 L 275.539,17.199zM 340.586,23.414L 334.00,16.828L 334.00,8.00L 338.00,8.00L 338.00,15.172L 343.414,20.586 zM 336.00,0.00C 327.163,0.00, 320.00,7.163, 320.00,16.00s 7.163,16.00, 16.00,16.00s 16.00-7.163, 16.00-16.00S 344.837,0.00, 336.00,0.00z M 336.00,28.00 c-6.627,0.00-12.00-5.373-12.00-12.00c0.00-6.627, 5.373-12.00, 12.00-12.00c 6.627,0.00, 12.00,5.373, 12.00,12.00C 348.00,22.627, 342.627,28.00, 336.00,28.00zM 416.047,25.00c0.00-9.00-8.00-7.00-8.00-14.00c0.00-0.58-0.056-1.076-0.158-1.498c-0.526-3.532-2.88-6.366-5.93-7.23 c 0.027-0.123, 0.041-0.251, 0.041-0.382C 402.00,0.851, 401.10,0.00, 400.00,0.00c-1.10,0.00-2.00,0.851-2.00,1.891c0.00,0.131, 0.014,0.258, 0.041,0.382 c-3.421,0.969-5.966,4.416-6.039,8.545c-0.001,0.06-0.002,0.121-0.002,0.183C 392.00,18.00, 384.00,16.00, 384.00,25.00 c0.00,2.382, 5.331,4.375, 12.468,4.878C 397.14,31.14, 398.47,32.00, 400.00,32.00s 2.86-0.86, 3.532-2.123 C 410.669,29.375, 416.00,27.382, 416.00,25.00c0.00-0.007-0.001-0.014-0.001-0.021L 416.047,25.00z M 409.82,26.691 c-1.695,0.452-3.692,0.777-5.837,0.958C 403.805,25.604, 402.09,24.00, 400.00,24.00s-3.805,1.604-3.984,3.648 c-2.144-0.18-4.142-0.506-5.837-0.958C 387.848,26.068, 386.733,25.372, 386.325,25.00c 0.408-0.372, 1.523-1.068, 3.855-1.69 C 392.891,22.586, 396.379,22.188, 400.00,22.188s 7.109,0.399, 9.82,1.122c 2.332,0.622, 3.447,1.318, 3.855,1.69 C 413.267,25.372, 412.152,26.068, 409.82,26.691zM 477.884,25.14L 468.00,8.671L 468.00,2.00 l 1.00,0.00 c 0.55,0.00, 1.00-0.45, 1.00-1.00s-0.45-1.00-1.00-1.00L 459.00,0.00 c-0.55,0.00-1.00,0.45-1.00,1.00s 0.45,1.00, 1.00,1.00l 1.00,0.00 l0.00,6.671 L 450.116,25.14C 447.852,28.913, 449.60,32.00, 454.00,32.00l 20.00,0.00 C 478.40,32.00, 480.148,28.913, 477.884,25.14z M 455.532,20.00L 462.00,9.221L 462.00,2.00 l 4.00,0.00 l0.00,7.221 L 472.468,20.00L 455.532,20.00 zM 544.00,12.408l-11.056-1.607L 528.00,0.783l-4.944,10.018L 512.00,12.408l 8.00,7.798L 518.112,31.217L 528.00,26.018l 9.889,5.199 l-1.889-11.011L 544.00,12.408z M 528.00,23.547l-6.983,3.671l 1.334-7.776l-5.65-5.507l 7.808-1.135L 528.00,5.726l 3.492,7.075 l 7.807,1.135l-5.65,5.507l 1.334,7.776L 528.00,23.547zM 608.00,6.076c-1.177,0.522-2.443,0.875-3.771,1.034c 1.355-0.813, 2.396-2.099, 2.887-3.632 c-1.269,0.752-2.674,1.299-4.169,1.593c-1.198-1.276-2.904-2.073-4.792-2.073c-3.626,0.00-6.565,2.939-6.565,6.565 c0.00,0.515, 0.058,1.016, 0.17,1.496c-5.456-0.274-10.294-2.888-13.532-6.86c-0.565,0.97-0.889,2.097-0.889,3.301 c0.00,2.278, 1.159,4.287, 2.921,5.465c-1.076-0.034-2.088-0.329-2.974-0.821c-0.001,0.027-0.001,0.055-0.001,0.083 c0.00,3.181, 2.263,5.834, 5.266,6.438c-0.551,0.15-1.131,0.23-1.73,0.23c-0.423,0.00-0.834-0.041-1.235-0.118 c 0.836,2.608, 3.26,4.506, 6.133,4.559c-2.247,1.761-5.078,2.81-8.154,2.81c-0.53,0.00-1.052-0.031-1.566-0.092 c 2.905,1.863, 6.356,2.95, 10.064,2.95c 12.076,0.00, 18.679-10.004, 18.679-18.68c0.00-0.285-0.006-0.568-0.019-0.849 C 606.007,8.548, 607.12,7.392, 608.00,6.076zM 656.00,0.00C 647.163,0.00, 640.00,7.163, 640.00,16.00s 7.163,16.00, 16.00,16.00s 16.00-7.163, 16.00-16.00S 664.837,0.00, 656.00,0.00z M 665.502,25.502 c-1.235,1.235-2.672,2.204-4.272,2.881c-0.406,0.172-0.819,0.323-1.238,0.453L 659.992,26.438 c0.00-1.26-0.432-2.188-1.297-2.781 c 0.542-0.052, 1.039-0.125, 1.492-0.219s 0.932-0.229, 1.438-0.406s 0.958-0.388, 1.359-0.633s 0.786-0.563, 1.156-0.953s 0.68-0.833, 0.93-1.328 s 0.448-1.089, 0.594-1.781s 0.219-1.456, 0.219-2.289c0.00-1.615-0.526-2.99-1.578-4.125c 0.479-1.25, 0.427-2.609-0.156-4.078l-0.391-0.047 c-0.271-0.031-0.758,0.083-1.461,0.344s-1.492,0.688-2.367,1.281c-1.24-0.344-2.526-0.516-3.859-0.516c-1.344,0.00-2.625,0.172-3.844,0.516 c-0.552-0.375-1.075-0.685-1.57-0.93c-0.495-0.245-0.891-0.411-1.188-0.50s-0.573-0.143-0.828-0.164s-0.419-0.026-0.492-0.016 s-0.125,0.021-0.156,0.031c-0.583,1.479-0.635,2.839-0.156,4.078c-1.052,1.135-1.578,2.51-1.578,4.125c0.00,0.833, 0.073,1.596, 0.219,2.289 s 0.344,1.286, 0.594,1.781s 0.56,0.938, 0.93,1.328s 0.755,0.708, 1.156,0.953s 0.854,0.456, 1.359,0.633s 0.984,0.313, 1.438,0.406 s 0.951,0.167, 1.492,0.219c-0.854,0.583-1.281,1.51-1.281,2.781l0.00,2.445 c-0.472-0.14-0.937-0.306-1.394-0.50 c-1.60-0.677-3.037-1.646-4.272-2.881c-1.235-1.235-2.204-2.672-2.881-4.272C 642.917,19.575, 642.563,17.815, 642.563,16.00 s 0.355-3.575, 1.055-5.23c 0.677-1.60, 1.646-3.037, 2.881-4.272s 2.672-2.204, 4.272-2.881 C 652.425,2.917, 654.185,2.563, 656.00,2.563s 3.575,0.355, 5.23,1.055c 1.60,0.677, 3.037,1.646, 4.272,2.881 c 1.235,1.235, 2.204,2.672, 2.881,4.272C 669.083,12.425, 669.438,14.185, 669.438,16.00s-0.355,3.575-1.055,5.23 C 667.706,22.829, 666.737,24.267, 665.502,25.502zM 730.668,0.00L 709.334,0.00 C 706.40,0.00, 704.00,2.40, 704.00,5.334l0.00,21.332 C 704.00,29.602, 706.40,32.00, 709.334,32.00L 730.668,32.00 C 733.602,32.00, 736.00,29.602, 736.00,26.666L 736.00,5.334 C 736.00,2.40, 733.601,0.00, 730.668,0.00z M 726.866,25.771 c-0.942,0.443-1.798,0.756-2.563,0.936c-0.765,0.178-1.593,0.267-2.481,0.267c-1.01,0.00-1.605-0.127-2.381-0.381 c-0.775-0.256-1.438-0.621-1.984-1.09c-0.549-0.473-0.928-0.975-1.14-1.506c-0.212-0.531-0.317-1.303-0.317-2.313L 716.00,13.941 l-3.00,0.00 l0.00-3.127 c 0.867-0.281, 1.873-0.685, 2.49-1.211c 0.62-0.527, 1.116-1.158, 1.49-1.896 c 0.375-0.736, 0.633-1.676, 0.773-2.815l 3.141,0.00 L 720.895,10.00 L 726.00,10.00 l0.00,3.941 l-5.106,0.00 l0.00,5.662 c0.00,1.281-0.017,2.02, 0.119,2.383 c 0.135,0.361, 0.473,0.736, 0.841,0.953c 0.489,0.293, 1.047,0.439, 1.676,0.439c 1.118,0.00, 2.231-0.363, 3.336-1.09L 726.866,25.771 L 726.866,25.771zM 794.625,0.00L 773.375,0.00 C 770.419,0.00, 768.00,2.419, 768.00,5.375l0.00,21.25 c0.00,2.956, 2.419,5.375, 5.375,5.375l 21.25,0.00 c 2.956,0.00, 5.375-2.419, 5.375-5.375L 800.00,5.375 C 800.00,2.419, 797.581,0.00, 794.625,0.00z M 780.00,26.00l-4.00,0.00 L 776.00,12.00 l 4.00,0.00 L 780.00,26.00 z M 778.00,10.00c-1.105,0.00-2.00-0.895-2.00-2.00s 0.895-2.00, 2.00-2.00s 2.00,0.895, 2.00,2.00S 779.105,10.00, 778.00,10.00z M 794.00,26.00l-4.00,0.00 L 790.00,18.00 c0.00-1.105-0.895-2.00-2.00-2.00s-2.00,0.895-2.00,2.00l0.00,8.00 l-4.00,0.00 L 782.00,12.00 l 4.00,0.00 l0.00,2.483 C 786.825,13.35, 788.086,12.00, 789.50,12.00c 2.485,0.00, 4.50,2.239, 4.50,5.00 L 794.00,26.00 z"></path></svg>